# Blender 4.4.1
# www.blender.org
mtllib usb.mtl
o usb
v 0.030000 0.038000 0.018000
v 0.030000 0.038000 -0.000000
v -0.000000 0.038000 0.018000
v -0.000000 0.038000 0.000000
v 0.030000 0.000000 0.018000
v 0.000000 0.000000 0.018000
v 0.030000 0.000000 -0.000000
v 0.000000 0.000000 0.000000
v 0.030000 0.004000 0.004000
v 0.030000 0.034000 0.004000
v 0.030000 0.034000 0.014000
v 0.030000 0.004000 0.014000
v 0.070000 0.004000 0.004000
v 0.070000 0.004000 0.014000
v 0.070000 0.034000 0.004000
v 0.070000 0.034000 0.014000
vn -0.0000 1.0000 -0.0000
vn -0.0000 -0.0000 1.0000
vn -0.0000 -1.0000 -0.0000
vn -0.0000 -0.0000 -1.0000
vn 1.0000 -0.0000 -0.0000
vn -1.0000 -0.0000 -0.0000
s 0
usemtl Material.001
f 13//3 14//3 9//3
f 9//3 14//3 12//3
f 15//4 13//4 10//4
f 10//4 13//4 9//4
f 16//1 15//1 11//1
f 11//1 15//1 10//1
f 14//2 16//2 12//2
f 12//2 16//2 11//2
f 15//5 16//5 13//5
f 13//5 16//5 14//5
usemtl Material.002
f 1//1 2//1 3//1
f 3//1 2//1 4//1
f 5//2 1//2 6//2
f 6//2 1//2 3//2
f 7//3 5//3 8//3
f 8//3 5//3 6//3
f 2//4 7//4 4//4
f 4//4 7//4 8//4
f 9//5 7//5 10//5
f 10//5 7//5 2//5
f 10//5 2//5 11//5
f 11//5 2//5 1//5
f 11//5 1//5 12//5
f 12//5 1//5 5//5
f 12//5 5//5 9//5
f 9//5 5//5 7//5
f 8//6 6//6 4//6
f 4//6 6//6 3//6
