# Blender 4.4.1
# www.blender.org
mtllib usb_port.mtl
o usb_port
v -0.100000 -0.100000 0.080000
v -0.100000 -0.100000 -0.000000
v -0.000000 -0.100000 0.080000
v 0.000000 -0.100000 0.000000
v -0.100000 0.100000 0.080000
v -0.000000 0.100000 0.080000
v -0.100000 0.100000 -0.000000
v 0.000000 0.100000 0.000000
v -0.100000 0.015000 0.049980
v -0.100000 -0.015020 0.049980
v -0.100000 -0.015020 0.060000
v -0.100000 0.015000 0.060000
v -0.060000 0.015000 0.049980
v -0.060000 0.015000 0.060000
v -0.060000 -0.015020 0.060000
v -0.060000 -0.015020 0.049980
vn -0.0000 -1.0000 -0.0000
vn -0.0000 -0.0000 1.0000
vn -0.0000 1.0000 -0.0000
vn -0.0000 -0.0000 -1.0000
vn -1.0000 -0.0000 -0.0000
vn 1.0000 -0.0000 -0.0000
s 0
f 1//1 2//1 3//1
f 3//1 2//1 4//1
f 5//2 1//2 6//2
f 6//2 1//2 3//2
f 7//3 5//3 8//3
f 8//3 5//3 6//3
f 2//4 7//4 4//4
f 4//4 7//4 8//4
f 9//5 7//5 10//5
f 10//5 7//5 2//5
f 10//5 2//5 11//5
f 11//5 2//5 1//5
f 11//5 1//5 12//5
f 12//5 1//5 5//5
f 12//5 5//5 9//5
f 9//5 5//5 7//5
f 8//6 6//6 4//6
f 4//6 6//6 3//6
f 13//1 14//1 9//1
f 9//1 14//1 12//1
f 14//4 15//4 12//4
f 12//4 15//4 11//4
f 15//3 16//3 11//3
f 11//3 16//3 10//3
f 16//2 13//2 10//2
f 10//2 13//2 9//2
f 16//5 15//5 13//5
f 13//5 15//5 14//5
