mtllib material.mtl
usemtl material_0
v -0.10000000 0.01751200 0.06400000
v -0.10000000 0.01751200 0.06400000
v -0.10000000 -0.01448800 0.06400000
v -0.10000000 -0.01448800 0.06400000
v -0.10000000 0.01751200 0.05200000
v -0.10000000 0.01751200 0.05200000
v -0.10000000 -0.01448800 0.05200000
v -0.10000000 -0.01448800 0.05200000
v -0.06000000 0.01751200 0.05200000
v -0.06000000 0.01751200 0.05200000
v -0.06000000 0.01751200 0.05200000
v -0.06000000 0.01751200 0.06400000
v -0.06000000 0.01751200 0.06400000
v -0.06000000 0.01751200 0.06400000
v -0.06000000 -0.01448800 0.06400000
v -0.06000000 -0.01448800 0.06400000
v -0.06000000 -0.01448800 0.06400000
v -0.06000000 -0.01448800 0.05200000
v -0.06000000 -0.01448800 0.05200000
v -0.06000000 -0.01448800 0.05200000
vn -0.00000000 -1.00000000 -0.00000000
vn -0.00000000 -0.00000000 -1.00000000
vn -0.00000000 1.00000000 -0.00000000
vn -0.00000000 -0.00000000 -1.00000000
vn -0.00000000 -0.00000000 1.00000000
vn -0.00000000 -1.00000000 -0.00000000
vn -0.00000000 1.00000000 -0.00000000
vn -0.00000000 -0.00000000 1.00000000
vn -0.00000000 -1.00000000 -0.00000000
vn -0.00000000 -0.00000000 1.00000000
vn -1.00000000 -0.00000000 -0.00000000
vn -0.00000000 -0.00000000 -1.00000000
vn -1.00000000 -0.00000000 -0.00000000
vn -0.00000000 -1.00000000 -0.00000000
vn -0.00000000 -0.00000000 -1.00000000
vn -0.00000000 1.00000000 -0.00000000
vn -1.00000000 -0.00000000 -0.00000000
vn -0.00000000 -0.00000000 1.00000000
vn -0.00000000 1.00000000 -0.00000000
vn -1.00000000 -0.00000000 -0.00000000
f 9//9 14//14 6//6
f 6//6 14//14 1//1
f 12//12 15//15 2//2
f 2//2 15//15 4//4
f 16//16 19//19 3//3
f 3//3 19//19 7//7
f 18//18 10//10 8//8
f 8//8 10//10 5//5
f 20//20 17//17 11//11
f 11//11 17//17 13//13

