mtllib material.mtl
usemtl material_0
v 0.03000000 0.00400000 0.00400000
v 0.03000000 0.00400000 0.00400000
v 0.03000000 0.03400000 0.00400000
v 0.03000000 0.03400000 0.00400000
v 0.03000000 0.03400000 0.01400000
v 0.03000000 0.03400000 0.01400000
v 0.03000000 0.00400000 0.01400000
v 0.03000000 0.00400000 0.01400000
v 0.07000000 0.00400000 0.00400000
v 0.07000000 0.00400000 0.00400000
v 0.07000000 0.00400000 0.00400000
v 0.07000000 0.00400000 0.01400000
v 0.07000000 0.00400000 0.01400000
v 0.07000000 0.00400000 0.01400000
v 0.07000000 0.03400000 0.00400000
v 0.07000000 0.03400000 0.00400000
v 0.07000000 0.03400000 0.00400000
v 0.07000000 0.03400000 0.01400000
v 0.07000000 0.03400000 0.01400000
v 0.07000000 0.03400000 0.01400000
vn -0.00000000 -0.00000000 -1.00000000
vn -0.00000000 -1.00000000 -0.00000000
vn -0.00000000 1.00000000 -0.00000000
vn -0.00000000 -0.00000000 -1.00000000
vn -0.00000000 -0.00000000 1.00000000
vn -0.00000000 1.00000000 -0.00000000
vn -0.00000000 -1.00000000 -0.00000000
vn -0.00000000 -0.00000000 1.00000000
vn -0.00000000 -0.00000000 -1.00000000
vn -0.00000000 -1.00000000 -0.00000000
vn 1.00000000 -0.00000000 -0.00000000
vn -0.00000000 -1.00000000 -0.00000000
vn 1.00000000 -0.00000000 -0.00000000
vn -0.00000000 -0.00000000 1.00000000
vn -0.00000000 1.00000000 -0.00000000
vn -0.00000000 -0.00000000 -1.00000000
vn 1.00000000 -0.00000000 -0.00000000
vn -0.00000000 -0.00000000 1.00000000
vn -0.00000000 1.00000000 -0.00000000
vn 1.00000000 -0.00000000 -0.00000000
f 10//10 12//12 2//2
f 2//2 12//12 7//7
f 16//16 9//9 4//4
f 4//4 9//9 1//1
f 19//19 15//15 6//6
f 6//6 15//15 3//3
f 14//14 18//18 8//8
f 8//8 18//18 5//5
f 17//17 20//20 11//11
f 11//11 20//20 13//13

