mtllib material.mtl
usemtl material_0
v -0.10000000 -0.10000000 0.08000000
v -0.10000000 -0.10000000 0.08000000
v -0.10000000 -0.10000000 0.08000000
v -0.10000000 -0.10000000 -0.00000000
v -0.10000000 -0.10000000 -0.00000000
v -0.10000000 -0.10000000 -0.00000000
v -0.00000000 -0.10000000 0.08000000
v -0.00000000 -0.10000000 0.08000000
v -0.00000000 -0.10000000 0.08000000
v 0.00000000 -0.10000000 0.00000000
v 0.00000000 -0.10000000 0.00000000
v 0.00000000 -0.10000000 0.00000000
v -0.10000000 0.10000000 0.08000000
v -0.10000000 0.10000000 0.08000000
v -0.10000000 0.10000000 0.08000000
v -0.00000000 0.10000000 0.08000000
v -0.00000000 0.10000000 0.08000000
v -0.00000000 0.10000000 0.08000000
v -0.10000000 0.10000000 -0.00000000
v -0.10000000 0.10000000 -0.00000000
v -0.10000000 0.10000000 -0.00000000
v 0.00000000 0.10000000 0.00000000
v 0.00000000 0.10000000 0.00000000
v 0.00000000 0.10000000 0.00000000
v -0.10000000 0.01751200 0.06400000
v -0.10000000 -0.01448800 0.06400000
v -0.10000000 0.01751200 0.05200000
v -0.10000000 -0.01448800 0.05200000
vn -0.00000000 -1.00000000 -0.00000000
vn -0.00000000 -0.00000000 1.00000000
vn -1.00000000 -0.00000000 -0.00000000
vn -0.00000000 -1.00000000 -0.00000000
vn -1.00000000 -0.00000000 -0.00000000
vn -0.00000000 -0.00000000 -1.00000000
vn -0.00000000 -0.00000000 1.00000000
vn -0.00000000 -1.00000000 -0.00000000
vn 1.00000000 -0.00000000 -0.00000000
vn 1.00000000 -0.00000000 -0.00000000
vn -0.00000000 -0.00000000 -1.00000000
vn -0.00000000 -1.00000000 -0.00000000
vn -0.00000000 1.00000000 -0.00000000
vn -0.00000000 -0.00000000 1.00000000
vn -1.00000000 -0.00000000 -0.00000000
vn -0.00000000 -0.00000000 1.00000000
vn -0.00000000 1.00000000 -0.00000000
vn 1.00000000 -0.00000000 -0.00000000
vn -0.00000000 1.00000000 -0.00000000
vn -0.00000000 -0.00000000 -1.00000000
vn -1.00000000 -0.00000000 -0.00000000
vn -0.00000000 1.00000000 -0.00000000
vn -0.00000000 -0.00000000 -1.00000000
vn 1.00000000 -0.00000000 -0.00000000
vn -1.00000000 -0.00000000 -0.00000000
vn -1.00000000 -0.00000000 -0.00000000
vn -1.00000000 -0.00000000 -0.00000000
vn -1.00000000 -0.00000000 -0.00000000
f 1//1 4//4 8//8
f 8//8 4//4 12//12
f 14//14 2//2 16//16
f 16//16 2//2 7//7
f 19//19 13//13 22//22
f 22//22 13//13 17//17
f 6//6 20//20 11//11
f 11//11 20//20 23//23
f 15//15 25//25 26//26
f 25//25 15//15 27//27
f 27//27 15//15 21//21
f 27//27 21//21 28//28
f 28//28 21//21 5//5
f 28//28 5//5 26//26
f 26//26 5//5 3//3
f 26//26 3//3 15//15
f 24//24 18//18 10//10
f 10//10 18//18 9//9

